<svg width="16" height="13" viewBox="0 0 16 13" fill="none" xmlns="http://www.w3.org/2000/svg">
<path d="M14.6006 0.5C14.8881 0.5 15.0918 0.587899 15.252 0.748047C15.4121 0.908196 15.5 1.1119 15.5 1.39941C15.4999 1.68666 15.4119 1.88974 15.252 2.0498L5.78125 11.5205C5.58171 11.72 5.37127 11.8047 5.12988 11.8047C4.88857 11.8046 4.67899 11.72 4.47949 11.5205L0.748047 7.79004C0.587909 7.62989 0.5 7.42618 0.5 7.13867C0.500069 6.85143 0.588065 6.64834 0.748047 6.48828C0.908195 6.32813 1.1119 6.24023 1.39941 6.24023C1.68676 6.2403 1.88972 6.3282 2.0498 6.48828L5.12988 9.56836L13.9502 0.748047C14.1103 0.588069 14.3133 0.500063 14.6006 0.5Z" fill="white" stroke="white"/>
</svg>
