<svg width="50" height="60" viewBox="0 0 50 60" fill="none" xmlns="http://www.w3.org/2000/svg">
<path d="M41.2129 24.082C41.2129 15.1758 33.9707 7.93359 25.0645 7.93359C16.1582 7.93359 8.91602 15.1758 8.91602 24.082C8.91602 32.9883 16.1582 40.2305 25.0645 40.2305C33.9707 40.2305 41.2129 32.9883 41.2129 24.082ZM25.0645 38.5195C17.0957 38.5195 10.627 32.0391 10.627 24.082C10.627 16.1133 17.1074 9.64453 25.0645 9.64453C33.0332 9.64453 39.502 16.125 39.502 24.082C39.502 32.0391 33.0215 38.5195 25.0645 38.5195Z" fill="black"/>
<path d="M20.9512 23.4258C23.0137 23.4258 24.6777 21.75 24.6777 19.6992C24.6777 17.6484 23.002 15.9727 20.9512 15.9727C18.9004 15.9727 17.2246 17.6484 17.2246 19.6992C17.2246 21.75 18.8887 23.4258 20.9512 23.4258ZM20.9512 17.6719C22.0645 17.6719 22.9785 18.5742 22.9785 19.6992C22.9785 20.8242 22.0762 21.7266 20.9512 21.7266C19.8262 21.7266 18.9238 20.8242 18.9238 19.6992C18.9238 18.5742 19.8262 17.6719 20.9512 17.6719Z" fill="black"/>
<path d="M31.9082 16.8173C31.9082 16.5712 31.8027 16.3251 31.5918 16.1611C31.2285 15.8564 30.6895 15.915 30.3848 16.2782L18.4316 30.7978C18.3027 30.9618 18.2324 31.1493 18.2324 31.3368C18.2324 31.5829 18.3379 31.829 18.5488 31.9931C18.7129 32.122 18.9004 32.1923 19.0879 32.1923C19.334 32.1923 19.5801 32.0868 19.7441 31.8759L31.709 17.3447C31.8379 17.204 31.9082 17.0048 31.9082 16.8173Z" fill="black"/>
<path d="M29.1777 24.7383C27.1152 24.7383 25.4512 26.4141 25.4512 28.4648C25.4512 30.5156 27.127 32.1914 29.1777 32.1914C31.2402 32.1914 32.9043 30.5156 32.9043 28.4648C32.9043 26.4141 31.2402 24.7383 29.1777 24.7383ZM29.1777 30.4922C28.0645 30.4922 27.1504 29.5898 27.1504 28.4648C27.1504 27.3516 28.0527 26.4375 29.1777 26.4375C30.3027 26.4375 31.2051 27.3398 31.2051 28.4648C31.2051 29.5781 30.291 30.4922 29.1777 30.4922Z" fill="black"/>
<path d="M49.4983 53.2734L41.3655 39.0703C41.6937 38.8828 42.0452 38.7422 42.4202 38.6602C43.8851 38.3438 45.1624 37.418 45.9124 36.1172C46.6624 34.8164 46.8265 33.2461 46.3694 31.8164C45.9358 30.4688 46.3343 28.9805 47.389 28.0195C48.5022 27.0117 49.1468 25.5703 49.1468 24.0703C49.1468 22.5703 48.5022 21.1289 47.389 20.1211C46.3343 19.1719 45.9358 17.6836 46.3694 16.3242C46.8265 14.8945 46.6624 13.3242 45.9124 12.0234C45.1624 10.7227 43.8851 9.79688 42.4202 9.48047C41.0257 9.1875 39.9358 8.09766 39.6429 6.70312C39.3265 5.23828 38.4007 3.96094 37.0999 3.21094C35.7991 2.46094 34.2288 2.29688 32.7991 2.75391C31.4515 3.1875 29.9632 2.78906 29.0022 1.73438C27.9944 0.621094 26.553 -0.0234375 25.053 -0.0234375C23.553 -0.0234375 22.1116 0.621094 21.1038 1.73438C20.1546 2.78906 18.6663 3.1875 17.3069 2.75391C15.8772 2.29688 14.3069 2.46094 13.0062 3.21094C11.7054 3.96094 10.7796 5.23828 10.4632 6.70312C10.1819 8.10938 9.09209 9.19922 7.69756 9.49219C6.23271 9.80859 4.95537 10.7344 4.20537 12.0352C3.45537 13.3359 3.29131 14.9062 3.74834 16.3359C4.18193 17.6836 3.7835 19.1719 2.72881 20.1328C1.61553 21.1406 0.970995 22.582 0.970995 24.082C0.970995 25.582 1.61553 27.0234 2.72881 28.0312C3.7835 28.9805 4.18193 30.4688 3.74834 31.8281C3.29131 33.2578 3.45537 34.8281 4.20537 36.1289C4.95537 37.4297 6.23271 38.3555 7.69756 38.6719C8.0374 38.7422 8.36553 38.8711 8.65849 39.0352L0.502245 53.2734C0.326464 53.5781 0.36162 53.9648 0.584277 54.2344C0.806933 54.5039 1.18193 54.6211 1.51006 54.5039L8.48271 52.1836L10.1819 59.3438C10.264 59.6836 10.5452 59.9414 10.8851 59.9883C10.9319 60 10.9671 60 11.0022 60C11.3069 60 11.5882 59.8359 11.7405 59.5664L19.8147 45.4922C20.2952 45.6914 20.7405 45.9961 21.1038 46.4062C22.1116 47.5195 23.553 48.1641 25.053 48.1641C26.553 48.1641 27.9944 47.5195 29.0022 46.4062C29.3421 46.0312 29.7522 45.7383 30.1858 45.5391L38.2249 59.5664C38.3772 59.8359 38.6585 60 38.9632 60C38.9983 60 39.0452 60 39.0804 59.9883C39.4319 59.9414 39.7132 59.6836 39.7835 59.3438L41.4827 52.1836L48.4554 54.5039C48.7952 54.6211 49.1585 54.5039 49.3811 54.2344C49.6507 53.9648 49.6741 53.5781 49.4983 53.2734ZM11.3421 56.8477L9.92412 50.8828C9.86553 50.6484 9.71318 50.4492 9.51396 50.332C9.30303 50.2148 9.05693 50.1914 8.83428 50.2734L3.09209 52.1836L9.95928 40.207C10.2054 40.582 10.3812 40.9922 10.4749 41.4375C10.7913 42.9023 11.7171 44.1797 13.0179 44.9297C14.3187 45.6797 15.889 45.8438 17.3187 45.3867C17.5413 45.3164 17.7757 45.2695 17.9983 45.2344L11.3421 56.8477ZM27.7483 45.2578C27.0687 46.0195 26.0843 46.4531 25.0647 46.4531C24.0452 46.4531 23.0726 46.0195 22.3812 45.2578C21.6546 44.4492 20.7054 43.8984 19.6858 43.6523C19.6507 43.6406 19.6038 43.6289 19.5687 43.6289C19.1937 43.5469 18.8069 43.5 18.4319 43.5C17.8812 43.5 17.3304 43.582 16.803 43.7578C15.8304 44.0742 14.764 43.957 13.8851 43.4531C13.0062 42.9375 12.3733 42.082 12.1624 41.0859C11.9163 39.9141 11.2718 38.8828 10.3929 38.1445C10.3694 38.1211 10.346 38.1094 10.3226 38.0859C9.67803 37.5586 8.91631 37.1836 8.07256 36.9961C7.07646 36.7852 6.20928 36.1523 5.70537 35.2734C5.18975 34.3945 5.08428 33.3281 5.40068 32.3555C6.04521 30.3633 5.45928 28.1719 3.90068 26.7656C3.13896 26.0859 2.70537 25.1016 2.70537 24.082C2.70537 23.0625 3.13896 22.0898 3.90068 21.3984C5.45928 19.9922 6.04521 17.8008 5.40068 15.8086C5.08428 14.8359 5.20146 13.7695 5.70537 12.8906C6.221 12.0117 7.07646 11.3789 8.07256 11.168C10.1233 10.7344 11.7288 9.12891 12.1624 7.07813C12.3733 6.08203 13.0062 5.21484 13.8851 4.71094C14.764 4.19531 15.8304 4.08984 16.803 4.40625C18.7952 5.05078 20.9866 4.46484 22.3929 2.90625C23.0726 2.14453 24.0569 1.71094 25.0765 1.71094C26.096 1.71094 27.0687 2.14453 27.7601 2.90625C29.1663 4.46484 31.3577 5.05078 33.3499 4.40625C34.3226 4.08984 35.389 4.20703 36.2679 4.71094C37.1468 5.22656 37.7796 6.08203 37.9905 7.07813C38.4241 9.12891 40.0296 10.7344 42.0804 11.168C43.0765 11.3789 43.9436 12.0117 44.4476 12.8906C44.9632 13.7695 45.0687 14.8359 44.7522 15.8086C44.1077 17.8008 44.6936 19.9922 46.2522 21.3984C47.014 22.0781 47.4476 23.0625 47.4476 24.082C47.4476 25.1016 47.014 26.0742 46.2522 26.7656C44.6936 28.1719 44.1077 30.3633 44.7522 32.3555C45.0687 33.3281 44.9515 34.3945 44.4476 35.2734C43.9319 36.1523 43.0765 36.7852 42.0804 36.9961C41.1897 37.1836 40.3694 37.6055 39.7132 38.1797C39.7015 38.1914 39.678 38.2031 39.6663 38.2266C38.8343 38.9648 38.2366 39.9609 37.9905 41.0859C37.7796 42.082 37.1468 42.9492 36.2679 43.4531C35.389 43.9688 34.3226 44.0742 33.3499 43.7578C32.389 43.4531 31.3929 43.4297 30.4437 43.6523C30.4085 43.6641 30.3733 43.6641 30.3382 43.6758C29.3538 43.9453 28.4515 44.4844 27.7483 45.2578ZM41.1663 50.2734C40.9436 50.2031 40.6858 50.2266 40.4866 50.332C40.2757 50.4492 40.1233 50.6484 40.0765 50.8828L38.6585 56.8477L31.9905 45.2227C32.2601 45.2461 32.5413 45.293 32.8108 45.3867C34.2405 45.8438 35.8108 45.6797 37.1116 44.9297C38.4124 44.1797 39.3382 42.9023 39.6546 41.4375C39.7366 41.0273 39.9007 40.6523 40.1116 40.3008L46.9085 52.1836L41.1663 50.2734Z" fill="black"/>
</svg>
