<svg width="121" height="37" viewBox="0 0 121 37" fill="none" xmlns="http://www.w3.org/2000/svg">
<path d="M1.84 9.28C1.84 18.44 21.08 17.88 21.08 25.44C21.08 28.56 16.36 30.16 11.56 30.16C6.64 30.16 1.6 28.48 1.6 25.16C1.6 22.8 4.04 19.88 8 17.72L7.56 17.44C3.56 19.24 0.8 22.36 0.8 25.12C0.8 28.76 6.16 30.72 11.76 30.72C17.88 30.72 24.24 28.4 24.24 23.4C24.24 15.48 4.52 15.12 4.52 7.44C4.52 4 7.72 2.08 11.2 2.08C15.48 2.08 20.12 5 19.6 11.44L23.2 8.12C23.2 4.08 17.64 1.56 12.16 1.56C6.96 1.56 1.84 3.88 1.84 9.28ZM28.2472 30H32.1672V-2.38419e-06H26.7672V0.359998C28.1272 0.359998 28.2472 1.08 28.2472 2.24V30ZM32.8472 14.36V15.04C34.3272 12.88 36.6072 11.16 39.2072 11.16C41.6072 11.16 43.4872 13.28 43.4872 16.64C43.4872 36.68 43.4872 10 43.4872 30H47.3672L47.3272 16.64C47.3272 11.92 44.1272 9.32 40.7672 9.32C37.2072 9.32 34.5272 12 32.8472 14.36ZM72.3812 10H65.3013C56.4613 10 51.8213 16.64 51.8213 22.36C51.8213 26.64 54.4213 30.4 59.9013 30.4C63.5413 30.4 66.3413 28.4 67.6613 24.36V23.2C66.9013 26.16 64.5013 28.16 61.4213 28.16C57.7013 28.16 55.9013 25.16 55.9013 21.64C55.9013 16.64 59.5413 10.6 66.3413 10.56H68.5013C68.5013 28.92 68.5013 10.56 68.5013 30H72.3812V10ZM82.6519 14.36V15.04C84.1319 12.88 86.4119 11.16 89.0119 11.16C91.4119 11.16 93.2919 13.28 93.2919 16.64C93.2919 36.68 93.2919 10 93.2919 30H97.1719L97.1319 16.64C97.1319 11.92 93.9319 9.32 90.5719 9.32C87.0119 9.32 84.3319 12 82.6519 14.36ZM81.9719 30V10H76.6119V10.36C77.9719 10.36 78.0919 11.12 78.0919 12.24V15.36C78.0919 26 78.0919 12.28 78.0919 30H81.9719ZM106.426 24.92V10.4H111.066V10H106.426V6.52H106.066C106.066 10 102.986 10 99.8259 10V10.4H102.466V24.8C102.466 29.12 104.106 30.4 106.906 30.4C109.266 30.4 110.826 27.84 112.106 25.48L111.906 25.28C111.106 26.56 109.506 27.64 108.266 27.64C107.226 27.64 106.426 26.92 106.426 24.92ZM102.466 10.36C101.706 10.36 100.666 10.36 100.506 10.36H102.466ZM116.028 2.56C115.348 3.24 115.708 4.84 116.908 6.36L117.748 7.4L118.588 6.36C119.828 4.84 120.188 3.24 119.508 2.56C119.068 2.12 118.428 1.92 117.788 1.92C117.108 1.92 116.468 2.12 116.028 2.56ZM119.628 30V10H114.228V10.36C115.588 10.36 115.708 11.12 115.708 12.24V30H119.628Z" fill="#BA936F"/>
</svg>
