<svg width="20" height="20" viewBox="0 0 20 20" fill="none" xmlns="http://www.w3.org/2000/svg">
<path d="M2.78546 6.48293C2.97391 6.02795 3.25014 5.61456 3.59837 5.26633C3.94659 4.91811 4.35998 4.64188 4.81496 4.45342C5.26993 4.26497 5.75757 4.16797 6.25003 4.16797C6.74249 4.16797 7.23013 4.26497 7.68511 4.45342C8.14008 4.64188 8.55348 4.91811 8.9017 5.26633L10 6.36467L11.0984 5.26633C11.8016 4.56307 12.7555 4.16798 13.75 4.16798C14.7446 4.16798 15.6984 4.56307 16.4017 5.26633C17.105 5.9696 17.5001 6.92343 17.5001 7.918C17.5001 8.91257 17.105 9.8664 16.4017 10.5697L10 16.9713L3.59837 10.5697C3.25014 10.2214 2.97391 9.80805 2.78546 9.35308C2.597 8.8981 2.5 8.41046 2.5 7.918C2.5 7.42554 2.597 6.9379 2.78546 6.48293Z" stroke="#2F302C" stroke-width="1.5" stroke-linecap="round" stroke-linejoin="round"/>
</svg>
