<svg width="37" height="37" viewBox="0 0 37 37" fill="none" xmlns="http://www.w3.org/2000/svg">
<path d="M33.1579 0.000561378C33.1579 17.2525 19.1373 31.238 1.8421 31.238C1.22371 31.238 0.609518 31.2201 0 31.1849L0 34.8655C0.610031 34.897 1.22419 34.913 1.8421 34.913C21.1721 34.913 36.8421 19.2822 36.8421 0.000561378C36.8421 0.000390677 36.8421 0.000732077 36.8421 0.000561378L33.1579 0.000561378C33.1579 0.000732077 33.1579 0.000390677 33.1579 0.000561378Z" fill="#2F302C"/>
<path d="M31.3158 4.92774e-05C31.3158 -0.000121423 31.3158 0.000219977 31.3158 4.92774e-05C31.3158 16.2372 18.12 29.4005 1.8421 29.4005C1.22343 29.4005 0.60921 29.3815 0 29.344L0 25.6609C0.608447 25.7038 1.22272 25.7255 1.8421 25.7255C16.0852 25.7255 27.6316 14.2081 27.6316 0.000561378C27.6316 0.000390677 27.6316 0.000732077 27.6316 0.000561378L31.3158 4.92774e-05Z" fill="#2F302C"/>
<path d="M0 23.8184C0.607968 23.8645 1.22228 23.888 1.8421 23.888C15.0679 23.888 25.7895 13.1932 25.7895 0.000561378C25.7895 0.000390677 25.7895 0.000732077 25.7895 0.000561378L22.1053 4.92774e-05C22.1053 -0.000121423 22.1053 0.000219977 22.1053 4.92774e-05C22.1053 11.1631 13.0331 20.213 1.8421 20.213C1.22114 20.213 0.606717 20.1852 0 20.1306L0 23.8184Z" fill="#2F302C"/>
<path d="M0 18.2848C0.605877 18.3448 1.22039 18.3755 1.8421 18.3755C12.0158 18.3755 20.2631 10.1488 20.2631 0.000561378C20.2631 0.000390677 20.2631 0.000732077 20.2631 0.000561378L16.5789 4.92774e-05C16.5789 -0.000121423 16.5789 0.000219977 16.5789 4.92774e-05C16.5789 8.11862 9.98103 14.7005 1.8421 14.7005C1.21825 14.7005 0.60346 14.6619 0 14.5868L0 18.2848Z" fill="#2F302C"/>
<path d="M0 12.7328C0.601634 12.8186 1.21667 12.863 1.8421 12.863C8.96366 12.863 14.7368 7.10432 14.7368 0.000561378C14.7368 0.000390677 14.7368 0.000732077 14.7368 0.000561378L11.0526 4.92774e-05C11.0526 -0.000121424 11.0526 0.000219976 11.0526 4.92774e-05C11.0526 5.07416 6.92893 9.18805 1.8421 9.18805C1.21124 9.18805 0.5952 9.12479 0 9.00427L0 12.7328Z" fill="#2F302C"/>
<path d="M0 7.119C0.588771 7.27016 1.20602 7.35055 1.8421 7.35055C5.91156 7.35055 9.21052 4.05985 9.21052 0.000561378C9.21052 0.000390676 9.21052 0.000732076 9.21052 0.000561378L0 4.92774e-05L0 7.119Z" fill="#2F302C"/>
<path d="M36.8421 11.5076C36.4668 12.6442 36.0373 13.7563 35.5569 14.8408C35.9896 14.8917 36.4182 14.9563 36.8421 15.0339V11.5076Z" fill="#2F302C"/>
<path d="M36.8421 16.9057C36.1478 16.7651 35.4393 16.6635 34.7191 16.6032C34.0837 17.8526 33.3789 19.061 32.6096 20.2231C32.7915 20.2165 32.9743 20.2132 33.1579 20.2132C34.43 20.2132 35.6646 20.3739 36.8421 20.6763V16.9057Z" fill="#2F302C"/>
<path d="M18.535 36.75H14.8277C14.7676 36.1458 14.7368 35.5331 14.7368 34.9131C14.7368 34.7531 14.7389 34.5936 14.743 34.4345C16.0592 33.9436 17.3398 33.3798 18.5798 32.7479C18.4752 33.4545 18.421 34.1775 18.421 34.9131C18.421 35.5352 18.4598 36.1483 18.535 36.75Z" fill="#2F302C"/>
<path d="M36.8421 22.5833C35.6747 22.2367 34.4381 22.0507 33.1579 22.0507C32.495 22.0507 31.8438 22.1005 31.2079 22.1968C28.3481 25.9556 24.7796 29.1485 20.701 31.5775C20.4154 32.6413 20.2631 33.7595 20.2631 34.9131C20.2631 35.5368 20.3076 36.1501 20.3936 36.75H24.1315C24.0107 36.1565 23.9474 35.5422 23.9474 34.9131C23.9474 29.839 28.0711 25.7257 33.1579 25.7257C34.4678 25.7257 35.7139 25.9984 36.8421 26.4901V22.5833Z" fill="#2F302C"/>
<path d="M36.8421 28.5465C35.7583 27.9211 34.5 27.5631 33.1579 27.5631C29.0884 27.5631 25.7895 30.8539 25.7895 34.9131C25.7895 35.5474 25.87 36.1629 26.0214 36.75H36.8421V28.5465Z" fill="#2F302C"/>
<path d="M12.9773 36.75H9.28027C9.26156 36.5045 9.24656 36.258 9.23534 36.0105C10.4793 35.7577 11.7004 35.4424 12.8953 35.068C12.8996 35.6345 12.9272 36.1955 12.9773 36.75Z" fill="#2F302C"/>
<path d="M7.43315 36.75C7.42336 36.6117 7.41467 36.473 7.40709 36.3341C6.2022 36.5162 4.97814 36.6401 3.73791 36.7028C3.73886 36.7186 3.73982 36.7343 3.74079 36.75H7.43315Z" fill="#2F302C"/>
<path d="M1.62392 36.75C1.07974 36.7469 0.53835 36.7319 0 36.7055L0 36.75H1.62392Z" fill="#2F302C"/>
</svg>
