<svg width="37" height="37" viewBox="0 0 37 37" fill="none" xmlns="http://www.w3.org/2000/svg">
<path d="M33.1579 0.250561C33.1579 17.5025 19.1373 31.488 1.8421 31.488C1.22371 31.488 0.609518 31.4701 0 31.4349L0 35.1155C0.610031 35.147 1.22419 35.163 1.8421 35.163C21.1721 35.163 36.8421 19.5322 36.8421 0.250561C36.8421 0.250391 36.8421 0.250732 36.8421 0.250561L33.1579 0.250561C33.1579 0.250732 33.1579 0.250391 33.1579 0.250561Z" fill="#2F302C"/>
<path d="M31.3158 0.250049C31.3158 0.249879 31.3158 0.25022 31.3158 0.250049C31.3158 16.4872 18.12 29.6505 1.8421 29.6505C1.22343 29.6505 0.60921 29.6315 0 29.594L0 25.9109C0.608447 25.9538 1.22272 25.9755 1.8421 25.9755C16.0852 25.9755 27.6316 14.4581 27.6316 0.250561C27.6316 0.250391 27.6316 0.250732 27.6316 0.250561L31.3158 0.250049Z" fill="#2F302C"/>
<path d="M0 24.0684C0.607968 24.1145 1.22228 24.138 1.8421 24.138C15.0679 24.138 25.7895 13.4432 25.7895 0.250561C25.7895 0.250391 25.7895 0.250732 25.7895 0.250561L22.1053 0.250049C22.1053 0.249879 22.1053 0.25022 22.1053 0.250049C22.1053 11.4131 13.0331 20.463 1.8421 20.463C1.22114 20.463 0.606717 20.4352 0 20.3806L0 24.0684Z" fill="#2F302C"/>
<path d="M0 18.5348C0.605877 18.5948 1.22039 18.6255 1.8421 18.6255C12.0158 18.6255 20.2631 10.3988 20.2631 0.250561C20.2631 0.250391 20.2631 0.250732 20.2631 0.250561L16.5789 0.250049C16.5789 0.249879 16.5789 0.25022 16.5789 0.250049C16.5789 8.36862 9.98103 14.9505 1.8421 14.9505C1.21825 14.9505 0.60346 14.9119 0 14.8368L0 18.5348Z" fill="#2F302C"/>
<path d="M0 12.9828C0.601634 13.0686 1.21667 13.113 1.8421 13.113C8.96366 13.113 14.7368 7.35432 14.7368 0.250561C14.7368 0.250391 14.7368 0.250732 14.7368 0.250561L11.0526 0.250049C11.0526 0.249879 11.0526 0.25022 11.0526 0.250049C11.0526 5.32416 6.92893 9.43805 1.8421 9.43805C1.21124 9.43805 0.5952 9.37479 0 9.25427L0 12.9828Z" fill="#2F302C"/>
<path d="M0 7.369C0.588771 7.52016 1.20602 7.60055 1.8421 7.60055C5.91156 7.60055 9.21052 4.30985 9.21052 0.250561C9.21052 0.250391 9.21052 0.250732 9.21052 0.250561L0 0.250049L0 7.369Z" fill="#2F302C"/>
<path d="M36.8421 11.7576C36.4668 12.8942 36.0373 14.0063 35.5569 15.0908C35.9896 15.1417 36.4182 15.2063 36.8421 15.2839V11.7576Z" fill="#2F302C"/>
<path d="M36.8421 17.1557C36.1478 17.0151 35.4393 16.9135 34.7191 16.8532C34.0837 18.1026 33.3789 19.311 32.6096 20.4731C32.7915 20.4665 32.9743 20.4632 33.1579 20.4632C34.43 20.4632 35.6646 20.6239 36.8421 20.9263V17.1557Z" fill="#2F302C"/>
<path d="M18.535 37H14.8277C14.7676 36.3958 14.7368 35.7831 14.7368 35.1631C14.7368 35.0031 14.7389 34.8436 14.743 34.6845C16.0592 34.1936 17.3398 33.6298 18.5798 32.9979C18.4752 33.7045 18.421 34.4275 18.421 35.1631C18.421 35.7852 18.4598 36.3983 18.535 37Z" fill="#2F302C"/>
<path d="M36.8421 22.8333C35.6747 22.4867 34.4381 22.3007 33.1579 22.3007C32.495 22.3007 31.8438 22.3505 31.2079 22.4468C28.3481 26.2056 24.7796 29.3985 20.701 31.8275C20.4154 32.8913 20.2631 34.0095 20.2631 35.1631C20.2631 35.7868 20.3076 36.4001 20.3936 37H24.1315C24.0107 36.4065 23.9474 35.7922 23.9474 35.1631C23.9474 30.089 28.0711 25.9757 33.1579 25.9757C34.4678 25.9757 35.7139 26.2484 36.8421 26.7401V22.8333Z" fill="#2F302C"/>
<path d="M36.8421 28.7965C35.7583 28.1711 34.5 27.8131 33.1579 27.8131C29.0884 27.8131 25.7895 31.1039 25.7895 35.1631C25.7895 35.7974 25.87 36.4129 26.0214 37H36.8421V28.7965Z" fill="#2F302C"/>
<path d="M12.9773 37H9.28027C9.26156 36.7545 9.24656 36.508 9.23534 36.2605C10.4793 36.0077 11.7004 35.6924 12.8953 35.318C12.8996 35.8845 12.9272 36.4455 12.9773 37Z" fill="#2F302C"/>
<path d="M7.43315 37C7.42336 36.8617 7.41467 36.723 7.40709 36.5841C6.2022 36.7662 4.97814 36.8901 3.73791 36.9528C3.73886 36.9686 3.73982 36.9843 3.74079 37H7.43315Z" fill="#2F302C"/>
<path d="M1.62392 37C1.07974 36.9969 0.53835 36.9819 0 36.9555L0 37H1.62392Z" fill="#2F302C"/>
</svg>
